# xmcd
#
# Track frame offsets: 
#        150
#        22161
#        41394
#        64514
#        83829
#        104554
#        130090
#        150603
#        171425
#        193305
#        213307
#        236353
#
# Disc length: 3551 seconds
#
# Revision: 0
# Processed by: cddbd v1.5.2PL0 Copyright (c) Steve Scherf et al.
# Submitted via: ExactAudioCopy v0.95b4
#
DISCID=a10ddd0c
DTITLE=Imperial Crowns - Star Of The West
DYEAR=2007
DGENRE=Blues Rock
TTITLE0=Star Of The West
TTITLE1=Nobody Baby
TTITLE2=Big Love Generator
TTITLE3=You Cut Me
TTITLE4=Bettye Gunne
TTITLE5=Pharao´s Army
TTITLE6=Diamond Cane
TTITLE7=Two Headed Woman
TTITLE8=Love Generator
TTITLE9=Storm Warnings
TTITLE10=Soul Deep Freak
TTITLE11=River Deep - Mountain High
EXTD=
EXTT0=
EXTT1=
EXTT2=
EXTT3=
EXTT4=
EXTT5=
EXTT6=
EXTT7=
EXTT8=
EXTT9=
EXTT10=
EXTT11=
PLAYORDER=
